<svg width="18" height="20" viewBox="0 0 18 20" fill="none" xmlns="http://www.w3.org/2000/svg">
<path d="M17.9471 6.305C17.937 5.54762 17.7952 4.79777 17.5281 4.089C17.2964 3.49115 16.9426 2.9482 16.4892 2.49483C16.0359 2.04146 15.4929 1.68765 14.8951 1.456C14.1954 1.19336 13.4562 1.05134 12.7091 1.036C11.7471 0.992999 11.4421 0.980999 9.00007 0.980999C6.55807 0.980999 6.24507 0.980999 5.29007 1.036C4.54323 1.05145 3.80442 1.19347 3.10507 1.456C2.50713 1.68749 1.96409 2.04124 1.5107 2.49463C1.05732 2.94802 0.703559 3.49106 0.47207 4.089C0.208901 4.78813 0.0671935 5.52711 0.0530703 6.274C0.0100703 7.237 -0.00292969 7.542 -0.00292969 9.984C-0.00292969 12.426 -0.00292969 12.738 0.0530703 13.694C0.0680703 14.442 0.20907 15.18 0.47207 15.881C0.703948 16.4788 1.05797 17.0216 1.51151 17.4748C1.96505 17.928 2.50813 18.2816 3.10607 18.513C3.8035 18.7862 4.54244 18.9384 5.29107 18.963C6.25407 19.006 6.55907 19.019 9.00107 19.019C11.4431 19.019 11.7561 19.019 12.7111 18.963C13.4582 18.9483 14.1974 18.8066 14.8971 18.544C15.4948 18.3121 16.0376 17.9582 16.4909 17.5048C16.9442 17.0515 17.2982 16.5087 17.5301 15.911C17.7931 15.211 17.9341 14.473 17.9491 13.724C17.9921 12.762 18.0051 12.457 18.0051 10.014C18.0031 7.572 18.0031 7.262 17.9471 6.305ZM8.99407 14.602C6.44007 14.602 4.37107 12.533 4.37107 9.979C4.37107 7.425 6.44007 5.356 8.99407 5.356C10.2202 5.356 11.396 5.84306 12.263 6.71004C13.13 7.57703 13.6171 8.7529 13.6171 9.979C13.6171 11.2051 13.13 12.381 12.263 13.248C11.396 14.1149 10.2202 14.602 8.99407 14.602ZM13.8011 6.263C13.6595 6.26313 13.5192 6.23534 13.3884 6.18121C13.2575 6.12708 13.1386 6.04768 13.0385 5.94755C12.9384 5.84743 12.859 5.72854 12.8049 5.59769C12.7507 5.46684 12.7229 5.3266 12.7231 5.185C12.7231 5.0435 12.7509 4.90339 12.8051 4.77266C12.8592 4.64193 12.9386 4.52315 13.0387 4.42309C13.1387 4.32304 13.2575 4.24367 13.3882 4.18952C13.519 4.13537 13.6591 4.1075 13.8006 4.1075C13.9421 4.1075 14.0822 4.13537 14.2129 4.18952C14.3436 4.24367 14.4624 4.32304 14.5625 4.42309C14.6625 4.52315 14.7419 4.64193 14.7961 4.77266C14.8502 4.90339 14.8781 5.0435 14.8781 5.185C14.8781 5.781 14.3961 6.263 13.8011 6.263Z" fill="#AE7B3C"/>
</svg>
